<?xml version="1.0" encoding="UTF-8" standalone="no"?>
<svg width="728px" height="249px" viewBox="0 0 728 249" version="1.1" xmlns="http://www.w3.org/2000/svg" xmlns:xlink="http://www.w3.org/1999/xlink" xmlns:sketch="http://www.bohemiancoding.com/sketch/ns">
    <!-- Generator: Sketch 3.1.1 (8761) - http://www.bohemiancoding.com/sketch -->
    <title>pegasus.lua 2</title>
    <desc>Created with Sketch.</desc>
    <defs></defs>
    <g id="Page-1" stroke="none" stroke-width="1" fill="none" fill-rule="evenodd" sketch:type="MSPage">
        <g id="Group" sketch:type="MSLayerGroup" transform="translate(258.000000, 4.000000)" stroke="#4A4A4A">
            <path d="M22.0280698,78.2332526 C38.864818,66.00166 44.9272768,66.7424857 65.0188696,61.2714467 C85.1104624,55.8004077 79.2964151,52.0622513 107.094726,55.0691857 C134.893038,58.0761201 141.420671,53.0153364 161.515731,71.7094811 C181.610791,90.4036258 182.566846,96.0983748 181.8403,124.603914 C181.113754,153.109454 173.727345,165.081543 158.718243,181.467046 C143.709141,197.852549 142.332428,197.388202 111.045766,201.890619 C79.7591044,206.393035 70.4753238,208.29434 45.1912659,197.804543 C19.907208,187.314747 15.9098371,183.1783 6.20580987,158.394839 C-3.49821738,133.611378 0.480834085,126.584608 2.87186305,110.056592 C8.58367435,89.9406139 5.19132161,90.4648452 22.0280698,78.2332526 Z" id="Path-2" stroke-width="1.6875" fill="#FFFFFF" sketch:type="MSShapeGroup"></path>
            <g id="Path-1-+-Oval-1" transform="translate(83.135802, 0.000000)" fill="#FFFFFF" sketch:type="MSShapeGroup">
                <path d="M15.0404972,112.986991 C14.4549513,113.007938 12.0277898,72.4715485 12.0277898,72.4715485 L10.1857157,52.5192033 L14.1858362,35.6118164 L13.8929036,14.8770479 C13.8929036,14.8770479 3.34433052,17.7587893 2.19644579,17.5071347 C1.04856107,17.2554801 0.691737802,16.4339157 0.261390218,14.8770474 C-0.168957366,13.320179 -0.506872105,12.5008909 0.476152585,11.0716753 C4.37760737,8.0066912 16.0399788,4.90582731 16.0399788,4.90582731 C16.0399788,4.90582731 14.3776179,0.872011993 15.0635368,0.831943797 C15.7494558,0.7918756 17.4754455,4.93023972 18.3571084,4.77047137 C19.2387713,4.61070303 18.1894614,0.0130918116 19.1261936,0.0957395639 C20.0629257,0.178387316 21.6748167,5.06319234 21.6748167,5.06319234 L29.9559221,16.0006122 L33.3592062,30.2294922 L46.7024498,0.991509736 L59.0582803,0.991509736 L75.2068745,2.27574044 L72.3894555,8.39096753 L54.2276355,11.9025187 L71.9374397,10.2386311 L70.8874904,15.7310008 L65.7167366,22.2644007 L50.4579114,22.6550621 L54.336251,24.3189497 C54.336251,24.3189497 55.1579987,31.915358 54.8837164,34.1443595 C54.8199473,34.6625896 37.0822623,32.8914917 36.6653258,32.8914917 C36.2483894,32.8914917 53.127218,34.1443595 53.127218,34.1443595 L68.6789762,36.4063447 L73.9473741,42.7559687 L76.485026,52.1274414 C76.485026,52.1274414 76.4131108,63.5993548 75.9112293,63.5776732 C75.4093477,63.5559915 74.4981313,52.0416059 74.4981313,52.0416059 L71.8749035,42.6822382 L69.3504171,40.0510509 L66.4242462,70.2399633 C66.4242462,70.2399633 63.7487473,110.514406 63.2152898,110.575895 C62.6818324,110.637384 64.2773076,70.4874286 64.2773076,70.4874286 L54.5914705,70.4874281 C54.5914705,70.4874281 55.3107877,110.490059 54.8837167,110.490059 C54.4566458,110.490059 52.8854399,70.4874281 52.8854399,70.4874281 L22.9046947,71.6737188 C22.9046947,71.6737188 22.8917219,111.109937 22.4285421,111.006173 C21.9653624,110.902409 20.810968,71.8777151 20.810968,71.8777151 L13.5084978,72.8214926 C13.5084978,72.8214926 15.6260431,112.966045 15.0404972,112.986991 Z" id="Path-1" stroke-width="2.25"></path>
                <ellipse id="Oval-1" stroke-width="1.125" cx="14.8858025" cy="8.73320896" rx="1.96604938" ry="1.40858209"></ellipse>
            </g>
            <g transform="translate(10.485597, 59.250000)" sketch:type="MSShapeGroup">
                <path d="M2.73264343,11.3139936 L12.4670661,7.04914407 L20.8357177,2.92400046 L28.4520939,-0.176269531 L32.608884,1.95315372 L40.3354031,3.84627757 L47.6758715,4.3799977 L28.5071653,9.07597082 L19.666001,13.5656595 L9.54002058,20.6939338 L2.79322198,26.2030388 L0.246719923,28.5267406 L0.981372549,24.4250632 L3.28335754,19.1528033 L3.72392883,14.6936753 L2.73264343,11.3139936 Z" id="Path-24" stroke-width="1.125"></path>
                <path d="M24.1730453,1.85055722 L27.2405229,4.31396484 L27.7246006,6.50341797 L33.6387194,7.50482537" id="Path-25" stroke-width="0.5625"></path>
                <path d="M19.600466,4.1311466 L22.9190692,4.96228745 L22.9190692,7.35202206" id="Path-26" stroke-width="0.5625"></path>
                <path d="M21.0582062,12.5817153 L20.6170842,8.6197438 L17.4884774,8.8080193 L17.4884774,5.0343233" id="Path-27" stroke-width="0.5625"></path>
                <path d="M18.4681978,14.9894589 L16.466352,12.4894876" id="Path-28" stroke-width="0.5625"></path>
                <path d="M9.62152626,8.41236788 L11.7825284,9.72265625 L9.18646212,12.2832031 L11.8254841,14.0791877" id="Path-29" stroke-width="0.5625"></path>
                <path d="M16.3132534,15.5892119 L14.7949346,9.95950138 L12.303504,7.73293888" id="Path-30" stroke-width="0.5625"></path>
                <path d="M5.42728758,23.0749368 L6.5050351,18.7675207 L5.32375333,14.7935432 L6.78094287,10.0555492" id="Path-31" stroke-width="0.5625"></path>
                <path d="M11.6663278,19.5015223 L11.525345,16.6981273 L8.20123457,14.2832893" id="Path-32" stroke-width="0.5625"></path>
            </g>
            <g transform="translate(96.617284, 160.500000)" sketch:type="MSShapeGroup">
                <path d="M12.7084627,29.6307488 C15.043272,30.9854329 23.2601367,29.1631044 23.2601367,29.1631044 L31.8054442,23.9283608 L42.5893878,16.3697671 L42.3062401,12.252727 L37.9904506,12.252727 L32.9114897,16.3819281 L26.3448976,17.5615419 L20.5768704,21.5691333 L14.1960939,23.9040389 C14.1960939,23.9040389 10.3736535,28.2760647 12.7084627,29.6307488 Z" id="Path-12" stroke-width="1.125" fill="#FFFFFF"></path>
                <path d="M13.4428769,29.739092 L10.0003103,27.7236881 L4.65755757,25.5175781 L0.14489196,25.5175781" id="Path-13" stroke-width="1.125"></path>
                <path d="M42.3698377,12.2952904 L42.4682758,7.04119988 L44.0421785,2.52450619 L46.5993557,0.0724130307" id="Path-14" stroke-width="1.125"></path>
                <path d="M13.4755053,25.0333505 L10.3276998,23.853184 L10.186126,20.3259508 L9.01205868,20.3259508" id="Path-15" stroke-width="0.5625"></path>
                <path d="M16.5735387,22.7719634 L13.6779116,21.1186247 L12.2638324,18.1552182" id="Path-16" stroke-width="0.5625"></path>
                <path d="M20.6426801,21.3253611 L17.9002403,18.2956221 L18.4903155,14.9093455 L16.0863257,13.0968087" id="Path-17" stroke-width="0.5625"></path>
                <path d="M25.3206995,18.4979363 L22.9167096,16.4394163 L21.638121,12.4694133" id="Path-18" stroke-width="0.5625"></path>
                <path d="M38.3477033,12.2295106 L36.5769245,9.04057341 L38.9316953,6.25626474 L38.1016082,2.7721477" id="Path-19" stroke-width="0.5625"></path>
                <path d="M33.6752141,15.3443765 L31.3696623,13.5810363 L31.5173194,9.70334611 L29.1625485,8.67076946" id="Path-20" stroke-width="0.5625"></path>
                <path d="M36.1599453,13.3842497 L34.1491546,11.5164357 L34.886887,9.27273732 L33.3129842,6.09540831" id="Path-21" stroke-width="0.5625"></path>
                <path d="M29.1387685,16.8578641 L26.4892365,14.946934 L29.5380509,12.4456442 L26.2547549,11.8558373" id="Path-22" stroke-width="0.5625"></path>
            </g>
            <g transform="translate(6.740741, 216.000000)" sketch:type="MSShapeGroup">
                <g id="Path-23-+-Path-24" transform="translate(0.000000, 2.857143)" stroke-width="2.25">
                    <path d="M0.969820813,0.170472756 L0.114225781,8.71634615 L0.541474134,21.0295616" id="Path-23"></path>
                    <path d="M0.85284922,1.26848672 L11.4813385,1.40984146 L12.9953792,10.526428 L0.755098311,10.9086682" id="Path-24"></path>
                </g>
                <path d="M18.7154549,3.50616146 L19.1547848,13.4669717 L19.496913,22.2745536 L30.0946491,22.1501962 L19.733602,21.9684432 L19.3667615,13.7087776 L29.1786462,13.0699848 L19.4776923,13.3495231 L18.7747644,3.41741071 L28.8738611,3.6177642 L18.7154549,3.50616146 Z" id="Path-25" stroke-width="2.25"></path>
                <path d="M43.3578017,2.85714286 L33.5291108,2.95685621 L35.1490078,22.2857143 L45.573837,22.0181418 L46.4629839,12.0473071 L39.8528325,12.0473071" id="Path-26" stroke-width="2.25"></path>
                <g id="Path-27-+-Path-28" transform="translate(50.610808, 2.857143)" stroke-width="2.25">
                    <path d="M-0.141134739,20.6454417 L1.89790528,0.141153665 L11.4407004,-0.229440789 L14.7554447,10.6256461 L15.879031,20.3520324" id="Path-27"></path>
                    <path d="M1.70295263,9.0856438 L14.2359371,9.2262688" id="Path-28"></path>
                </g>
                <path d="M78.6735557,2.57421875 L67.6968975,2.75677648 L70.8106484,10.7777255 L81.2260626,11.2070743 L82.2947327,21.7142857 L71.8123206,20.5170354" id="Path-29" stroke-width="2.25"></path>
                <path d="M85.8033313,-0.233258929 L87.110887,10.4768608 L87.4217129,21.7142857 L96.9952612,20.3423304 L99.1930091,20.7280593 L98.3566348,10.0077888 L97.4285503,-0.233258929" id="Path-30" stroke-width="2.25"></path>
                <path d="M111.574974,0.772036306 L102.936649,0.392299107 L104.272761,10.214004 L109.383267,10.551488 L113.614014,10.0276565 L114.010509,21.5351562 L105.194805,21.053578" id="Path-31" stroke-width="2.25"></path>
                <path d="M117.529542,22.352287 L118.420676,23.4285714 L120.917879,23.242978 L121.465938,21.0876156 L120.039478,20.5714286 L118.088631,20.9248067 L117.529542,22.352287 Z" id="Path-32" stroke-width="0.703125" fill="#4A4A4A"></path>
                <path d="M126.8837,-0.124441964 L126.22443,10.8367746 L126.612139,21.9720982 L132.500258,21.5343192 L137.38396,21.5066964" id="Path-33" stroke-width="2.25"></path>
                <path d="M140.159976,0.470982143 L140.535054,14.7273996 L140.828306,21.9012277 L150.629757,20.9743304 L152.882147,21.2938058 L153.560088,11.2226562 L152.656441,0.695033482" id="Path-34" stroke-width="2.25"></path>
                <path d="M158.355923,21.8080357 L159.284007,11.8113839 L159.964694,0.797154018 L168.847121,0.797154018 L170.214536,8.45256696 L171.145641,15.6453683 L171.414181,22.1127232" id="Path-35" stroke-width="2.25"></path>
                <path d="M159.570945,11.4179688 L165.068884,10.8691406 L170.529755,11.7377232" id="Path-36" stroke-width="2.25"></path>
            </g>
        </g>
    </g>
</svg>