<?xml version="1.0" encoding="UTF-8" standalone="no"?>
<svg width="350px" height="466px" viewBox="0 0 350 466" version="1.1" xmlns="http://www.w3.org/2000/svg" xmlns:xlink="http://www.w3.org/1999/xlink" xmlns:sketch="http://www.bohemiancoding.com/sketch/ns">
    <!-- Generator: Sketch 3.1.1 (8761) - http://www.bohemiancoding.com/sketch -->
    <title>pegasus.lua 2</title>
    <desc>Created with Sketch.</desc>
    <defs></defs>
    <g id="Page-1" stroke="none" stroke-width="1" fill="none" fill-rule="evenodd" sketch:type="MSPage">
        <path d="M54.2148055,154.028019 C84.1879177,132.309878 94.9804268,133.625272 130.747878,123.911018 C166.515329,114.196763 156.165047,107.559377 205.65215,112.898422 C255.139254,118.237467 266.759875,109.251653 302.533499,142.444557 C338.307123,175.637461 340.00911,185.74893 338.715699,236.362726 C337.422288,286.976522 324.272857,308.233895 297.553356,337.327626 C270.833856,366.421357 268.383003,365.596873 212.685869,373.591263 C156.988735,381.585653 140.461565,384.961567 95.4503854,366.336119 C50.4392054,347.710672 43.3230068,340.366091 26.0477055,296.361134 C8.77240422,252.356177 15.8559903,239.879601 20.1125474,210.532826 C30.2808269,174.815347 24.2416934,175.746161 54.2148055,154.028019 Z" id="Path-2" stroke="#4A4A4A" stroke-width="3" fill="#FFFFFF" sketch:type="MSShapeGroup"></path>
        <g id="Path-1-+-Oval-1" sketch:type="MSLayerGroup" transform="translate(163.000000, 15.000000)" stroke="#4A4A4A" fill="#FFFFFF">
            <path d="M26.7753906,200.533203 C25.7329902,200.570379 21.4121094,128.625 21.4121094,128.625 L18.1328125,93.2128906 L25.2539063,63.2050781 L24.7324219,26.4042969 C24.7324219,26.4042969 5.95364334,31.5189109 3.91015625,31.0722656 C1.86666916,30.6256204 1.23144532,29.1674796 0.465332037,26.404296 C-0.300781244,23.6411124 -0.902343748,22.1870117 0.84765625,19.6503906 C7.79310322,14.2105513 28.5546875,8.70703125 28.5546875,8.70703125 C28.5546875,8.70703125 25.5953197,1.54767692 26.8164063,1.4765625 C28.0374928,1.40544808 31.1101338,8.75035924 32.6796875,8.46679688 C34.2492412,8.18323451 32.381239,0.0232357982 34.0488281,0.169921875 C35.7164172,0.316607952 38.5859375,8.98632813 38.5859375,8.98632813 L53.328125,28.3984375 L59.3867188,53.6523438 L83.140625,1.75976563 L105.136719,1.75976563 L133.884766,4.0390625 L128.869141,14.8925781 L96.5371094,21.125 L128.064453,18.171875 L126.195313,27.9199219 L116.990234,39.515625 L89.8261719,40.2089844 L96.7304688,43.1621094 C96.7304688,43.1621094 98.1933604,56.6444764 97.7050775,60.6005851 C97.5915546,61.5203578 66.0145768,58.3769522 65.2723383,58.3769522 C64.5300998,58.3769522 94.5781244,60.6005851 94.5781244,60.6005851 L122.263672,64.6152344 L131.642578,75.8847656 L136.160156,92.5175781 C136.160156,92.5175781 136.032131,112.878325 135.138672,112.839844 C134.245212,112.801362 132.623047,92.3652344 132.623047,92.3652344 L127.953125,75.7539063 L123.458984,71.0839844 L118.249757,124.664306 C118.249757,124.664306 113.486781,196.144774 112.537109,196.253906 C111.587438,196.363038 114.427734,125.103516 114.427734,125.103516 L97.1848156,125.103515 C97.1848156,125.103515 98.4653583,196.101563 97.7050781,196.101563 C96.944798,196.101563 94.1477062,125.103515 94.1477062,125.103515 L40.7753906,127.208984 C40.7753906,127.208984 40.7522962,197.201742 39.9277344,197.017578 C39.1031725,196.833415 37.0480968,127.571044 37.0480968,127.571044 L24.0480949,129.246093 C24.0480949,129.246093 27.8177911,200.496027 26.7753906,200.533203 Z" id="Path-1" stroke-width="4" sketch:type="MSShapeGroup"></path>
            <ellipse id="Oval-1" stroke-width="2" sketch:type="MSShapeGroup" cx="26.5" cy="15.5" rx="3.5" ry="2.5"></ellipse>
        </g>
        <g id="Group" sketch:type="MSLayerGroup" transform="translate(33.000000, 120.000000)" stroke="#4A4A4A">
            <path d="M4.84570312,20.2460938 L22.1074219,12.6142578 L36.9472656,5.23242188 L50.453125,-0.315429688 L57.8242188,3.49511719 L71.5253906,6.8828125 L84.5419922,7.83789062 L50.5507812,16.2412109 L34.8730469,24.2753906 L16.9169922,37.03125 L4.953125,46.8896484 L0.4375,51.0478516 L1.74023438,43.7080078 L5.82226562,34.2734375 L6.60351562,26.2939453 L4.84570312,20.2460938 Z" id="Path-24" stroke-width="2" sketch:type="MSShapeGroup"></path>
            <path d="M42.8652344,3.31152344 L48.3046875,7.71972656 L49.1630859,11.6376953 L59.6503906,13.4296875" id="Path-25" sketch:type="MSShapeGroup"></path>
            <path d="M34.7568359,7.39257812 L40.6416016,8.87988281 L40.6416016,13.15625" id="Path-26" sketch:type="MSShapeGroup"></path>
            <path d="M37.3417969,22.5146484 L36.5595703,15.4248047 L31.0117188,15.7617188 L31.0117188,9.00878906" id="Path-27" sketch:type="MSShapeGroup"></path>
            <path d="M32.7490234,26.8232422 L29.1992188,22.3496094" id="Path-28" sketch:type="MSShapeGroup"></path>
            <path d="M17.0615234,15.0537109 L20.8935547,17.3984375 L16.2900391,21.9804688 L20.9697266,25.1943359" id="Path-29" sketch:type="MSShapeGroup"></path>
            <path d="M28.9277344,27.8964844 L26.2353516,17.8222656 L21.8173828,13.8378906" id="Path-30" sketch:type="MSShapeGroup"></path>
            <path d="M9.62402344,41.2919922 L11.5351562,33.5839844 L9.44042969,26.4726562 L12.0244141,17.9941406" id="Path-31" sketch:type="MSShapeGroup"></path>
            <path d="M20.6875,34.8974609 L20.4375,29.8808594 L14.5429688,25.5595703" id="Path-32" sketch:type="MSShapeGroup"></path>
        </g>
        <g id="Group" sketch:type="MSLayerGroup" transform="translate(187.000000, 300.000000)" stroke="#4A4A4A">
            <path d="M22.4414062,52.3476562 C26.5643599,54.7409315 41.0742188,51.5214844 41.0742188,51.5214844 L56.1640625,42.2734375 L75.2070312,28.9199219 L74.7070312,21.6464844 L67.0859375,21.6464844 L58.1171875,28.9414062 L46.5214844,31.0253906 L36.3359375,38.1054688 L25.0683594,42.2304688 C25.0683594,42.2304688 18.3184526,49.954381 22.4414062,52.3476562 Z" id="Path-12" stroke-width="2" fill="#FFFFFF" sketch:type="MSShapeGroup"></path>
            <path d="M23.7382812,52.5390625 L17.6591797,48.9785156 L8.22460938,45.0810547 L0.255859375,45.0810547" id="Path-13" stroke-width="2" sketch:type="MSShapeGroup"></path>
            <path d="M74.8193359,21.7216797 L74.9931641,12.4394531 L77.7724609,4.45996094 L82.2880859,0.127929688" id="Path-14" stroke-width="2" sketch:type="MSShapeGroup"></path>
            <path d="M23.7958984,44.2255859 L18.2373047,42.140625 L17.9873047,35.9091797 L15.9140625,35.9091797" id="Path-15" sketch:type="MSShapeGroup"></path>
            <path d="M29.2666016,40.2304688 L24.1533203,37.3095703 L21.65625,32.0742188" id="Path-16" sketch:type="MSShapeGroup"></path>
            <path d="M36.4521484,37.6748047 L31.609375,32.3222656 L32.6513672,26.3398438 L28.40625,23.1376953" id="Path-17" sketch:type="MSShapeGroup"></path>
            <path d="M44.7128906,32.6796875 L40.4677734,29.0429688 L38.2099609,22.0292969" id="Path-18" sketch:type="MSShapeGroup"></path>
            <path d="M67.7167969,21.6054688 L64.5898438,15.9716797 L68.7480469,11.0527344 L67.2822266,4.89746094" id="Path-19" sketch:type="MSShapeGroup"></path>
            <path d="M59.4658203,27.1083984 L55.3945312,23.9931641 L55.6552734,17.1425781 L51.4970703,15.3183594" id="Path-20" sketch:type="MSShapeGroup"></path>
            <path d="M63.8535156,23.6455078 L60.3027344,20.3457031 L61.6054688,16.3818359 L58.8261719,10.7685547" id="Path-21" sketch:type="MSShapeGroup"></path>
            <path d="M51.4550781,29.7822266 L46.7763672,26.40625 L52.1601562,21.9873047 L46.3623047,20.9453125" id="Path-22" sketch:type="MSShapeGroup"></path>
        </g>
        <g id="Path-23-+-Path-24" sketch:type="MSLayerGroup" transform="translate(32.000000, 404.000000)" stroke="#4A4A4A" stroke-width="4">
            <path d="M1.72460938,0.298327324 L0.203125,15.2536058 L0.962890625,36.8017328" id="Path-23" sketch:type="MSShapeGroup"></path>
            <path d="M1.51660156,2.21985176 L20.4169922,2.46722256 L23.109375,18.421249 L1.34277344,19.0901693" id="Path-24" sketch:type="MSShapeGroup"></path>
        </g>
        <path d="M61.28125,405.135783 L62.0625,422.5672 L62.6708984,437.980469 L81.5166016,437.762843 L63.0917969,437.444776 L62.4394531,422.990361 L79.8876953,421.872473 L62.6367188,422.361665 L61.3867188,404.980469 L79.3457031,405.331087 L61.28125,405.135783 Z" id="Path-25" stroke="#4A4A4A" stroke-width="4" sketch:type="MSShapeGroup"></path>
        <path d="M103.102152,404 L85.6240234,404.174498 L88.5046479,438 L107.042875,437.531748 L108.624023,420.082787 L96.8693478,420.082787" id="Path-26" stroke="#4A4A4A" stroke-width="4" sketch:type="MSShapeGroup"></path>
        <g id="Path-27-+-Path-28" sketch:type="MSLayerGroup" transform="translate(115.000000, 404.000000)" stroke="#4A4A4A" stroke-width="4">
            <path d="M-0.250976562,36.129523 L3.375,0.247018914 L20.3447266,-0.401521382 L26.2392578,18.5948808 L28.2373047,35.6160567" id="Path-27" sketch:type="MSShapeGroup"></path>
            <path d="M3.02832031,15.8998766 L25.3154297,16.1459704" id="Path-28" sketch:type="MSShapeGroup"></path>
        </g>
        <path d="M161.90332,403.504883 L142.383789,403.824359 L147.920898,417.86102 L166.442383,418.61238 L168.342773,437 L149.702148,434.904812" id="Path-29" stroke="#4A4A4A" stroke-width="4" sketch:type="MSShapeGroup"></path>
        <path d="M173.582031,398.591797 L175.907227,417.334506 L176.459961,437 L193.484375,434.599078 L197.392578,435.274104 L195.905273,416.51363 L194.254883,398.591797" id="Path-30" stroke="#4A4A4A" stroke-width="4" sketch:type="MSShapeGroup"></path>
        <path d="M216.411133,400.351064 L201.049805,399.686523 L203.425781,416.874507 L212.513672,417.465104 L220.037109,416.548399 L220.742188,436.686523 L205.06543,435.843761" id="Path-31" stroke="#4A4A4A" stroke-width="4" sketch:type="MSShapeGroup"></path>
        <path d="M226.429688,437.836792 L227.642822,439.341797 L231.042358,439.082275 L231.788452,436.068359 L229.846558,435.346558 L227.190796,435.840698 L226.429688,437.836792 Z" id="Path-32" stroke="#4A4A4A" fill="#4A4A4A" sketch:type="MSShapeGroup"></path>
        <path d="M237.634277,398.782227 L236.461914,417.964355 L237.151367,437.451172 L247.62207,436.685059 L256.306641,436.636719" id="Path-33" stroke="#4A4A4A" stroke-width="4" sketch:type="MSShapeGroup"></path>
        <path d="M261.243164,399.824219 L261.910156,424.772949 L262.431641,437.327148 L279.861328,435.705078 L283.866699,436.26416 L285.072266,418.639648 L283.465332,400.216309" id="Path-34" stroke="#4A4A4A" stroke-width="4" sketch:type="MSShapeGroup"></path>
        <path d="M292.600586,437.164062 L294.250977,419.669922 L295.461426,400.39502 L311.256836,400.39502 L313.688477,413.791992 L315.344238,426.379395 L315.821777,437.697266" id="Path-35" stroke="#4A4A4A" stroke-width="4" sketch:type="MSShapeGroup"></path>
        <path d="M294.76123,418.981445 L304.538086,418.020996 L314.249023,419.541016" id="Path-36" stroke="#4A4A4A" stroke-width="4" sketch:type="MSShapeGroup"></path>
    </g>
</svg>