<?xml version="1.0" encoding="UTF-8" standalone="no"?>
<svg width="728px" height="466px" viewBox="0 0 728 466" version="1.1" xmlns="http://www.w3.org/2000/svg" xmlns:xlink="http://www.w3.org/1999/xlink" xmlns:sketch="http://www.bohemiancoding.com/sketch/ns">
    <!-- Generator: Sketch 3.1.1 (8761) - http://www.bohemiancoding.com/sketch -->
    <title>pegasus.lua 2</title>
    <desc>Created with Sketch.</desc>
    <defs></defs>
    <g id="Page-1" stroke="none" stroke-width="1" fill="none" fill-rule="evenodd" sketch:type="MSPage">
        <path d="M227.214806,154.028019 C257.187918,132.309878 267.980427,133.625272 303.747878,123.911018 C339.515329,114.196763 329.165047,107.559377 378.65215,112.898422 C428.139254,118.237467 439.759875,109.251653 475.533499,142.444557 C511.307123,175.637461 513.00911,185.74893 511.715699,236.362726 C510.422288,286.976522 497.272857,308.233895 470.553356,337.327626 C443.833856,366.421357 441.383003,365.596873 385.685869,373.591263 C329.988735,381.585653 313.461565,384.961567 268.450385,366.336119 C223.439205,347.710672 216.323007,340.366091 199.047705,296.361134 C181.772404,252.356177 188.85599,239.879601 193.112547,210.532826 C203.280827,174.815347 197.241693,175.746161 227.214806,154.028019 Z" id="Path-2" stroke="#4A4A4A" stroke-width="3" fill="#FFFFFF" sketch:type="MSShapeGroup"></path>
        <g id="Path-1-+-Oval-1" sketch:type="MSLayerGroup" transform="translate(336.000000, 15.000000)" stroke="#4A4A4A" fill="#FFFFFF">
            <path d="M26.7753906,200.533203 C25.7329902,200.570379 21.4121094,128.625 21.4121094,128.625 L18.1328125,93.2128906 L25.2539063,63.2050781 L24.7324219,26.4042969 C24.7324219,26.4042969 5.95364334,31.5189109 3.91015625,31.0722656 C1.86666916,30.6256204 1.23144532,29.1674796 0.465332037,26.404296 C-0.300781244,23.6411124 -0.902343748,22.1870117 0.84765625,19.6503906 C7.79310322,14.2105513 28.5546875,8.70703125 28.5546875,8.70703125 C28.5546875,8.70703125 25.5953197,1.54767692 26.8164063,1.4765625 C28.0374928,1.40544808 31.1101338,8.75035924 32.6796875,8.46679688 C34.2492412,8.18323451 32.381239,0.0232357982 34.0488281,0.169921875 C35.7164172,0.316607952 38.5859375,8.98632813 38.5859375,8.98632813 L53.328125,28.3984375 L59.3867188,53.6523438 L83.140625,1.75976563 L105.136719,1.75976563 L133.884766,4.0390625 L128.869141,14.8925781 L96.5371094,21.125 L128.064453,18.171875 L126.195313,27.9199219 L116.990234,39.515625 L89.8261719,40.2089844 L96.7304688,43.1621094 C96.7304688,43.1621094 98.1933604,56.6444764 97.7050775,60.6005851 C97.5915546,61.5203578 66.0145768,58.3769522 65.2723383,58.3769522 C64.5300998,58.3769522 94.5781244,60.6005851 94.5781244,60.6005851 L122.263672,64.6152344 L131.642578,75.8847656 L136.160156,92.5175781 C136.160156,92.5175781 136.032131,112.878325 135.138672,112.839844 C134.245212,112.801362 132.623047,92.3652344 132.623047,92.3652344 L127.953125,75.7539063 L123.458984,71.0839844 L118.249757,124.664306 C118.249757,124.664306 113.486781,196.144774 112.537109,196.253906 C111.587438,196.363038 114.427734,125.103516 114.427734,125.103516 L97.1848156,125.103515 C97.1848156,125.103515 98.4653583,196.101563 97.7050781,196.101563 C96.944798,196.101563 94.1477062,125.103515 94.1477062,125.103515 L40.7753906,127.208984 C40.7753906,127.208984 40.7522962,197.201742 39.9277344,197.017578 C39.1031725,196.833415 37.0480968,127.571044 37.0480968,127.571044 L24.0480949,129.246093 C24.0480949,129.246093 27.8177911,200.496027 26.7753906,200.533203 Z" id="Path-1" stroke-width="4" sketch:type="MSShapeGroup"></path>
            <ellipse id="Oval-1" stroke-width="2" sketch:type="MSShapeGroup" cx="26.5" cy="15.5" rx="3.5" ry="2.5"></ellipse>
        </g>
        <g id="Group" sketch:type="MSLayerGroup" transform="translate(206.000000, 120.000000)" stroke="#4A4A4A">
            <path d="M4.84570312,20.2460938 L22.1074219,12.6142578 L36.9472656,5.23242188 L50.453125,-0.315429688 L57.8242188,3.49511719 L71.5253906,6.8828125 L84.5419922,7.83789062 L50.5507812,16.2412109 L34.8730469,24.2753906 L16.9169922,37.03125 L4.953125,46.8896484 L0.4375,51.0478516 L1.74023438,43.7080078 L5.82226562,34.2734375 L6.60351562,26.2939453 L4.84570312,20.2460938 Z" id="Path-24" stroke-width="2" sketch:type="MSShapeGroup"></path>
            <path d="M42.8652344,3.31152344 L48.3046875,7.71972656 L49.1630859,11.6376953 L59.6503906,13.4296875" id="Path-25" sketch:type="MSShapeGroup"></path>
            <path d="M34.7568359,7.39257812 L40.6416016,8.87988281 L40.6416016,13.15625" id="Path-26" sketch:type="MSShapeGroup"></path>
            <path d="M37.3417969,22.5146484 L36.5595703,15.4248047 L31.0117188,15.7617188 L31.0117188,9.00878906" id="Path-27" sketch:type="MSShapeGroup"></path>
            <path d="M32.7490234,26.8232422 L29.1992188,22.3496094" id="Path-28" sketch:type="MSShapeGroup"></path>
            <path d="M17.0615234,15.0537109 L20.8935547,17.3984375 L16.2900391,21.9804688 L20.9697266,25.1943359" id="Path-29" sketch:type="MSShapeGroup"></path>
            <path d="M28.9277344,27.8964844 L26.2353516,17.8222656 L21.8173828,13.8378906" id="Path-30" sketch:type="MSShapeGroup"></path>
            <path d="M9.62402344,41.2919922 L11.5351562,33.5839844 L9.44042969,26.4726562 L12.0244141,17.9941406" id="Path-31" sketch:type="MSShapeGroup"></path>
            <path d="M20.6875,34.8974609 L20.4375,29.8808594 L14.5429688,25.5595703" id="Path-32" sketch:type="MSShapeGroup"></path>
        </g>
        <g id="Group" sketch:type="MSLayerGroup" transform="translate(360.000000, 300.000000)" stroke="#4A4A4A">
            <path d="M22.4414062,52.3476562 C26.5643599,54.7409315 41.0742188,51.5214844 41.0742188,51.5214844 L56.1640625,42.2734375 L75.2070312,28.9199219 L74.7070312,21.6464844 L67.0859375,21.6464844 L58.1171875,28.9414062 L46.5214844,31.0253906 L36.3359375,38.1054688 L25.0683594,42.2304688 C25.0683594,42.2304688 18.3184526,49.954381 22.4414062,52.3476562 Z" id="Path-12" stroke-width="2" fill="#FFFFFF" sketch:type="MSShapeGroup"></path>
            <path d="M23.7382812,52.5390625 L17.6591797,48.9785156 L8.22460938,45.0810547 L0.255859375,45.0810547" id="Path-13" stroke-width="2" sketch:type="MSShapeGroup"></path>
            <path d="M74.8193359,21.7216797 L74.9931641,12.4394531 L77.7724609,4.45996094 L82.2880859,0.127929688" id="Path-14" stroke-width="2" sketch:type="MSShapeGroup"></path>
            <path d="M23.7958984,44.2255859 L18.2373047,42.140625 L17.9873047,35.9091797 L15.9140625,35.9091797" id="Path-15" sketch:type="MSShapeGroup"></path>
            <path d="M29.2666016,40.2304688 L24.1533203,37.3095703 L21.65625,32.0742188" id="Path-16" sketch:type="MSShapeGroup"></path>
            <path d="M36.4521484,37.6748047 L31.609375,32.3222656 L32.6513672,26.3398438 L28.40625,23.1376953" id="Path-17" sketch:type="MSShapeGroup"></path>
            <path d="M44.7128906,32.6796875 L40.4677734,29.0429688 L38.2099609,22.0292969" id="Path-18" sketch:type="MSShapeGroup"></path>
            <path d="M67.7167969,21.6054688 L64.5898438,15.9716797 L68.7480469,11.0527344 L67.2822266,4.89746094" id="Path-19" sketch:type="MSShapeGroup"></path>
            <path d="M59.4658203,27.1083984 L55.3945312,23.9931641 L55.6552734,17.1425781 L51.4970703,15.3183594" id="Path-20" sketch:type="MSShapeGroup"></path>
            <path d="M63.8535156,23.6455078 L60.3027344,20.3457031 L61.6054688,16.3818359 L58.8261719,10.7685547" id="Path-21" sketch:type="MSShapeGroup"></path>
            <path d="M51.4550781,29.7822266 L46.7763672,26.40625 L52.1601562,21.9873047 L46.3623047,20.9453125" id="Path-22" sketch:type="MSShapeGroup"></path>
        </g>
        <g id="Group" sketch:type="MSLayerGroup" transform="translate(200.000000, 399.000000)" stroke="#4A4A4A">
            <g id="Path-23-+-Path-24" transform="translate(0.000000, 5.000000)" stroke-width="4" sketch:type="MSShapeGroup">
                <path d="M1.72460938,0.298327324 L0.203125,15.2536058 L0.962890625,36.8017328" id="Path-23"></path>
                <path d="M1.51660156,2.21985176 L20.4169922,2.46722256 L23.109375,18.421249 L1.34277344,19.0901693" id="Path-24"></path>
            </g>
            <path d="M33.28125,6.13578256 L34.0625,23.5672004 L34.6708984,38.9804688 L53.5166016,38.7628434 L35.0917969,38.4447756 L34.4394531,23.9903608 L51.8876953,22.8724734 L34.6367188,23.3616654 L33.3867188,5.98046875 L51.3457031,6.33108736 L33.28125,6.13578256 Z" id="Path-25" stroke-width="4" sketch:type="MSShapeGroup"></path>
            <path d="M77.1021516,5 L59.6240234,5.17449838 L62.5046479,39 L81.0428747,38.5317481 L82.6240234,21.0827874 L70.8693478,21.0827874" id="Path-26" stroke-width="4" sketch:type="MSShapeGroup"></path>
            <g id="Path-27-+-Path-28" transform="translate(90.000000, 5.000000)" stroke-width="4" sketch:type="MSShapeGroup">
                <path d="M-0.250976562,36.129523 L3.375,0.247018914 L20.3447266,-0.401521382 L26.2392578,18.5948808 L28.2373047,35.6160567" id="Path-27"></path>
                <path d="M3.02832031,15.8998766 L25.3154297,16.1459704" id="Path-28"></path>
            </g>
            <path d="M139.90332,4.50488281 L120.383789,4.82435884 L125.920898,18.8610197 L144.442383,19.61238 L146.342773,38 L127.702148,35.904812" id="Path-29" stroke-width="4" sketch:type="MSShapeGroup"></path>
            <path d="M152.582031,-0.408203125 L154.907227,18.3345064 L155.459961,38 L172.484375,35.5990783 L176.392578,36.2741038 L174.905273,17.5136305 L173.254883,-0.408203125" id="Path-30" stroke-width="4" sketch:type="MSShapeGroup"></path>
            <path d="M198.411133,1.35106353 L183.049805,0.686523438 L185.425781,17.874507 L194.513672,18.465104 L202.037109,17.5483989 L202.742188,37.6865234 L187.06543,36.8437615" id="Path-31" stroke-width="4" sketch:type="MSShapeGroup"></path>
            <path d="M209,39.1165022 L210.584683,41 L215.025399,40.6752116 L216,36.9033273 L213.463359,36 L209.994214,36.6184118 L209,39.1165022 Z" id="Path-32" stroke-width="1.25" fill="#4A4A4A" sketch:type="MSShapeGroup"></path>
            <path d="M225.634277,-0.217773438 L224.461914,18.9643555 L225.151367,38.4511719 L235.62207,37.6850586 L244.306641,37.6367188" id="Path-33" stroke-width="4" sketch:type="MSShapeGroup"></path>
            <path d="M249.243164,0.82421875 L249.910156,25.7729492 L250.431641,38.3271484 L267.861328,36.7050781 L271.866699,37.2641602 L273.072266,19.6396484 L271.465332,1.21630859" id="Path-34" stroke-width="4" sketch:type="MSShapeGroup"></path>
            <path d="M281.600586,38.1640625 L283.250977,20.6699219 L284.461426,1.39501953 L300.256836,1.39501953 L302.688477,14.7919922 L304.344238,27.3793945 L304.821777,38.6972656" id="Path-35" stroke-width="4" sketch:type="MSShapeGroup"></path>
            <path d="M283.76123,19.9814453 L293.538086,19.0209961 L303.249023,20.5410156" id="Path-36" stroke-width="4" sketch:type="MSShapeGroup"></path>
        </g>
    </g>
</svg>